<svg width="5" height="5" viewBox="0 0 5 5" fill="none" xmlns="http://www.w3.org/2000/svg">
<path d="M4.80409 3.8588L3.44529 2.50067L4.80332 1.14254C5.06454 0.882061 5.06454 0.458122 4.80332 0.197648C4.5421 -0.0651182 4.11973 -0.0643543 3.85851 0.196884L2.49971 1.55502L1.14092 0.195356C0.879702 -0.065882 0.456559 -0.0643543 0.195341 0.195356C-0.0651136 0.456594 -0.0651136 0.880533 0.195341 1.14101L1.5549 2.50067L0.198396 3.85651C-0.0628222 4.11775 -0.0628222 4.54169 0.198396 4.8014C0.329005 4.93278 0.499332 4.99771 0.670422 4.99771C0.842276 4.99771 1.0126 4.93278 1.14321 4.80216L2.49971 3.44556L3.85927 4.80445C3.98988 4.93507 4.16021 5 4.3313 5C4.50239 5 4.67348 4.93431 4.80409 4.80445C5.0653 4.54321 5.0653 4.12004 4.80409 3.8588Z" fill="#484848"/>
</svg>
